<svg xmlns="http://www.w3.org/2000/svg" width="24" height="24" viewBox="0 0 24 24" fill="#00B900"><path d="M19.365 9.863c.349 0 .63.285.63.631 0 .345-.281.63-.63.63H17.61v1.125h1.755c.349 0 .63.283.63.63 0 .344-.281.629-.63.629h-2.386c-.345 0-.627-.285-.627-.629V8.108c0-.345.282-.63.63-.63h2.386c.346 0 .627.285.627.63 0 .349-.281.63-.63.63H17.61v1.125h1.755zm-3.855 3.016c0 .27-.174.51-.432.596-.064.021-.133.031-.199.031-.211 0-.391-.09-.51-.25l-2.443-3.317v2.94c0 .344-.279.629-.631.629-.346 0-.626-.285-.626-.629V8.108c0-.27.173-.51.43-.595.06-.023.136-.033.194-.033.195 0 .375.104.495.254l2.462 3.33V8.108c0-.345.282-.63.63-.63.345 0 .63.285.63.63v4.771zm-5.741 0v1.105H8.432c.346 0 .63-.285.63-.629V8.108c0-.345-.284-.63-.63-.63H6.664c-.231 0-.432.106-.54.299-.117.198-.114.444.01.634l2.762 3.393V8.108c0-.345.282-.63.63-.63h.344v4.771zm-3.657 0H2.86c-.346 0-.63.285-.63.63 0 .344.284.629.63.629h1.155v1.104c0 .27.174.51.432.596.064.021.134.031.2.031.21 0 .39-.09.51-.25l2.444-3.316v2.939c0 .345.282.63.63.63.345 0 .63-.285.63-.63V8.108c0-.27-.174-.51-.43-.595-.06-.023-.136-.033-.194-.033-.196 0-.376.104-.496.254L4.46 11.94v-3.19c0-.345-.282-.63-.63-.63-.345 0-.63.285-.63.63v4.899zM24 10.314C24 4.943 18.615.572 12 .572S0 4.943 0 10.314c0 4.811 4.27 8.842 10.035 9.608.391.082.923.258 1.058.59.12.301.079.766.038 1.08l-.164 1.02c-.045.301-.24 1.186 1.049.645 1.291-.539 6.916-4.078 9.436-6.975C23.176 14.393 24 12.458 24 10.314"></path></svg>
